<mxfile host="app.diagrams.net" agent="Mozilla/5.0 (X11; Linux x86_64) AppleWebKit/537.36 (KHTML, like Gecko) Chrome/133.0.0.0 Safari/537.36" version="27.2.0">
  <diagram name="Page-1" id="UokjxA56wNc4N8eFkrky">
    <mxGraphModel dx="748" dy="797" grid="1" gridSize="10" guides="1" tooltips="1" connect="1" arrows="1" fold="1" page="1" pageScale="1" pageWidth="850" pageHeight="1100" math="0" shadow="0">
      <root>
        <mxCell id="0" />
        <mxCell id="1" parent="0" />
        <mxCell id="M828uHGaxxEeVkbUzdAj-7" value="" style="edgeStyle=orthogonalEdgeStyle;rounded=0;orthogonalLoop=1;jettySize=auto;html=1;strokeColor=#DDA15E;fontColor=default;fillColor=#BC6C25;labelBackgroundColor=none;" edge="1" parent="1" source="M828uHGaxxEeVkbUzdAj-1" target="M828uHGaxxEeVkbUzdAj-4">
          <mxGeometry relative="1" as="geometry" />
        </mxCell>
        <mxCell id="M828uHGaxxEeVkbUzdAj-1" value="&lt;font style=&quot;font-size: 18px; color: light-dark(rgb(26, 64, 255), rgb(0, 0, 0));&quot;&gt;&lt;b&gt;Start&lt;/b&gt;&lt;/font&gt;" style="rounded=1;whiteSpace=wrap;html=1;labelBackgroundColor=none;fillColor=#BC6C25;strokeColor=#DDA15E;fontColor=#FEFAE0;" vertex="1" parent="1">
          <mxGeometry x="387" y="80" width="75" height="40" as="geometry" />
        </mxCell>
        <mxCell id="M828uHGaxxEeVkbUzdAj-8" value="" style="edgeStyle=orthogonalEdgeStyle;rounded=0;orthogonalLoop=1;jettySize=auto;html=1;strokeColor=#DDA15E;fontColor=default;fillColor=#BC6C25;labelBackgroundColor=none;" edge="1" parent="1" source="M828uHGaxxEeVkbUzdAj-4" target="M828uHGaxxEeVkbUzdAj-6">
          <mxGeometry relative="1" as="geometry" />
        </mxCell>
        <mxCell id="M828uHGaxxEeVkbUzdAj-4" value="&lt;b style=&quot;color: rgb(0, 0, 0); font-size: 18px;&quot;&gt;Take Input N times&lt;/b&gt;" style="shape=parallelogram;perimeter=parallelogramPerimeter;whiteSpace=wrap;html=1;fixedSize=1;labelBackgroundColor=none;fillColor=#BC6C25;strokeColor=#DDA15E;fontColor=#FEFAE0;" vertex="1" parent="1">
          <mxGeometry x="282" y="160" width="285" height="40" as="geometry" />
        </mxCell>
        <mxCell id="M828uHGaxxEeVkbUzdAj-14" style="edgeStyle=orthogonalEdgeStyle;rounded=0;orthogonalLoop=1;jettySize=auto;html=1;strokeColor=#DDA15E;fontColor=default;fillColor=#BC6C25;entryX=1;entryY=0.5;entryDx=0;entryDy=0;exitX=1;exitY=0.5;exitDx=0;exitDy=0;labelBackgroundColor=none;" edge="1" parent="1" source="M828uHGaxxEeVkbUzdAj-10" target="M828uHGaxxEeVkbUzdAj-6">
          <mxGeometry relative="1" as="geometry">
            <mxPoint x="610" y="290" as="targetPoint" />
            <Array as="points">
              <mxPoint x="611" y="540" />
              <mxPoint x="611" y="290" />
            </Array>
          </mxGeometry>
        </mxCell>
        <mxCell id="M828uHGaxxEeVkbUzdAj-18" value="" style="edgeStyle=orthogonalEdgeStyle;rounded=0;orthogonalLoop=1;jettySize=auto;html=1;strokeColor=#DDA15E;fontColor=default;fillColor=#BC6C25;labelBackgroundColor=none;" edge="1" parent="1" source="M828uHGaxxEeVkbUzdAj-5" target="M828uHGaxxEeVkbUzdAj-10">
          <mxGeometry relative="1" as="geometry" />
        </mxCell>
        <mxCell id="M828uHGaxxEeVkbUzdAj-5" value="&lt;div&gt;&lt;font color=&quot;#ededed&quot;&gt;&lt;span style=&quot;font-size: 18px;&quot;&gt;&lt;b&gt;next = cur + prev;&lt;/b&gt;&lt;/span&gt;&lt;/font&gt;&lt;/div&gt;&lt;div&gt;&lt;font color=&quot;#ededed&quot;&gt;&lt;span style=&quot;font-size: 18px;&quot;&gt;&lt;b&gt;prev = cur;&lt;/b&gt;&lt;/span&gt;&lt;/font&gt;&lt;/div&gt;&lt;div&gt;&lt;font color=&quot;#ededed&quot;&gt;&lt;span style=&quot;font-size: 18px;&quot;&gt;&lt;b&gt;cur = next;&lt;/b&gt;&lt;/span&gt;&lt;/font&gt;&lt;/div&gt;" style="rounded=0;whiteSpace=wrap;html=1;strokeColor=#DDA15E;fontColor=#FEFAE0;fillColor=#BC6C25;labelBackgroundColor=none;" vertex="1" parent="1">
          <mxGeometry x="283" y="400" width="285" height="80" as="geometry" />
        </mxCell>
        <mxCell id="M828uHGaxxEeVkbUzdAj-9" value="" style="edgeStyle=orthogonalEdgeStyle;rounded=0;orthogonalLoop=1;jettySize=auto;html=1;strokeColor=#DDA15E;fontColor=default;fillColor=#BC6C25;labelBackgroundColor=none;" edge="1" parent="1" source="M828uHGaxxEeVkbUzdAj-6" target="M828uHGaxxEeVkbUzdAj-5">
          <mxGeometry relative="1" as="geometry" />
        </mxCell>
        <mxCell id="M828uHGaxxEeVkbUzdAj-15" style="edgeStyle=orthogonalEdgeStyle;rounded=0;orthogonalLoop=1;jettySize=auto;html=1;strokeColor=#DDA15E;fontColor=default;fillColor=#BC6C25;entryX=0;entryY=0.5;entryDx=0;entryDy=0;labelBackgroundColor=none;" edge="1" parent="1" source="M828uHGaxxEeVkbUzdAj-6" target="M828uHGaxxEeVkbUzdAj-12">
          <mxGeometry relative="1" as="geometry">
            <mxPoint x="240" y="540" as="targetPoint" />
            <Array as="points">
              <mxPoint x="241" y="290" />
              <mxPoint x="241" y="620" />
            </Array>
          </mxGeometry>
        </mxCell>
        <mxCell id="M828uHGaxxEeVkbUzdAj-6" value="&lt;b style=&quot;color: rgb(0, 0, 0); font-size: 18px;&quot;&gt;i = 0&lt;/b&gt;" style="rhombus;whiteSpace=wrap;html=1;strokeColor=#DDA15E;fontColor=#FEFAE0;fillColor=#BC6C25;labelBackgroundColor=none;" vertex="1" parent="1">
          <mxGeometry x="375" y="240" width="100" height="100" as="geometry" />
        </mxCell>
        <mxCell id="M828uHGaxxEeVkbUzdAj-13" value="" style="edgeStyle=orthogonalEdgeStyle;rounded=0;orthogonalLoop=1;jettySize=auto;html=1;strokeColor=#DDA15E;fontColor=default;fillColor=#BC6C25;labelBackgroundColor=none;" edge="1" parent="1" source="M828uHGaxxEeVkbUzdAj-10" target="M828uHGaxxEeVkbUzdAj-12">
          <mxGeometry relative="1" as="geometry" />
        </mxCell>
        <mxCell id="M828uHGaxxEeVkbUzdAj-10" value="&lt;b style=&quot;color: rgb(0, 0, 0); font-size: 18px;&quot;&gt;Print prev&lt;/b&gt;" style="shape=parallelogram;perimeter=parallelogramPerimeter;whiteSpace=wrap;html=1;fixedSize=1;labelBackgroundColor=none;fillColor=#BC6C25;strokeColor=#DDA15E;fontColor=#FEFAE0;" vertex="1" parent="1">
          <mxGeometry x="283" y="520" width="285" height="40" as="geometry" />
        </mxCell>
        <mxCell id="M828uHGaxxEeVkbUzdAj-12" value="&lt;font style=&quot;font-size: 18px; color: light-dark(rgb(26, 64, 255), rgb(0, 0, 0));&quot;&gt;&lt;b&gt;Stop&lt;/b&gt;&lt;/font&gt;" style="rounded=1;whiteSpace=wrap;html=1;labelBackgroundColor=none;fillColor=#BC6C25;strokeColor=#DDA15E;fontColor=#FEFAE0;" vertex="1" parent="1">
          <mxGeometry x="388" y="600" width="75" height="40" as="geometry" />
        </mxCell>
        <mxCell id="M828uHGaxxEeVkbUzdAj-16" value="&lt;div&gt;i &amp;lt; N&lt;/div&gt;" style="text;html=1;align=center;verticalAlign=middle;resizable=0;points=[];autosize=1;strokeColor=none;fillColor=none;fontColor=#FEFAE0;labelBackgroundColor=none;" vertex="1" parent="1">
          <mxGeometry x="610" y="348" width="50" height="30" as="geometry" />
        </mxCell>
        <mxCell id="M828uHGaxxEeVkbUzdAj-17" value="!(i &amp;lt; N)" style="text;html=1;align=center;verticalAlign=middle;resizable=0;points=[];autosize=1;strokeColor=none;fillColor=none;fontColor=#FEFAE0;labelBackgroundColor=none;" vertex="1" parent="1">
          <mxGeometry x="250" y="258" width="60" height="30" as="geometry" />
        </mxCell>
      </root>
    </mxGraphModel>
  </diagram>
</mxfile>
